<?xml version="1.0" encoding="utf-8"?>
<!-- Generator: Avocode 2.5.0 - http://avocode.com -->
<svg height="25" width="25" xmlns:xlink="http://www.w3.org/1999/xlink" xmlns="http://www.w3.org/2000/svg" viewBox="0 0 25 25">
    <path fill="#282828" fill-rule="evenodd" d="M 12.15 25 C 18.86 25 24.3 19.56 24.3 12.85 C 24.3 6.14 18.86 0.7 12.15 0.7 C 5.44 0.7 0 6.14 0 12.85 C 0 19.56 5.44 25 12.15 25" />
    <path fill="#fefefe" fill-rule="evenodd" d="M 9.22 10.79 L 10.47 10.79 L 10.47 9.57 C 10.47 9.04 10.49 8.21 10.88 7.69 C 11.29 7.15 11.86 6.78 12.83 6.78 C 14.41 6.78 15.08 7 15.08 7 L 14.77 8.86 C 14.77 8.86 14.24 8.71 13.75 8.71 C 13.27 8.71 12.83 8.89 12.83 9.38 L 12.83 10.79 L 14.83 10.79 L 14.69 12.61 L 12.83 12.61 L 12.83 18.93 L 10.47 18.93 L 10.47 12.61 L 9.22 12.61 L 9.22 10.79 Z M 9.22 10.79" />
</svg>