<?xml version="1.0" encoding="utf-8"?>
<!-- Generator: Avocode 2.5.0 - http://avocode.com -->
<svg height="25" width="25" xmlns:xlink="http://www.w3.org/1999/xlink" xmlns="http://www.w3.org/2000/svg" viewBox="0 0 25 25">
    <path fill="#282828" fill-rule="evenodd" d="M 12.15 25 C 18.86 25 24.3 19.56 24.3 12.85 C 24.3 6.14 18.86 0.7 12.15 0.7 C 5.44 0.7 0 6.14 0 12.85 C 0 19.56 5.44 25 12.15 25" />
    <path fill="#fefefe" fill-rule="evenodd" d="M 18.24 9.67 C 17.8 9.87 17.31 10 16.81 10.06 C 17.33 9.75 17.72 9.26 17.91 8.68 C 17.42 8.97 16.89 9.17 16.32 9.29 C 15.87 8.8 15.22 8.5 14.5 8.5 C 13.12 8.5 12 9.62 12 10.99 C 12 11.19 12.03 11.38 12.07 11.56 C 9.99 11.46 8.15 10.47 6.92 8.95 C 6.71 9.32 6.58 9.75 6.58 10.21 C 6.58 11.08 7.02 11.84 7.69 12.29 C 7.29 12.28 6.9 12.16 6.56 11.98 L 6.56 12.01 C 6.56 13.22 7.42 14.23 8.57 14.46 C 8.36 14.51 8.14 14.54 7.91 14.54 C 7.75 14.54 7.59 14.53 7.44 14.5 C 7.76 15.49 8.68 16.21 9.77 16.23 C 8.92 16.9 7.84 17.3 6.67 17.3 C 6.47 17.3 6.27 17.29 6.07 17.27 C 7.18 17.97 8.49 18.39 9.9 18.39 C 14.49 18.39 17.01 14.58 17.01 11.28 C 17.01 11.18 17 11.07 17 10.96 C 17.49 10.61 17.91 10.17 18.24 9.67" />
</svg>