<?xml version="1.0" encoding="utf-8"?>
<!-- Generator: Avocode 2.5.0 - http://avocode.com -->
<svg height="25" width="25" xmlns:xlink="http://www.w3.org/1999/xlink" xmlns="http://www.w3.org/2000/svg" viewBox="0 0 25 25">
    <path fill="#282828" fill-rule="evenodd" d="M 12.15 25 C 18.86 25 24.3 19.56 24.3 12.85 C 24.3 6.14 18.86 0.7 12.15 0.7 C 5.44 0.7 0 6.14 0 12.85 C 0 19.56 5.44 25 12.15 25" />
    <path fill="#fefefe" fill-rule="evenodd" d="M 17.04 16.58 C 17.04 17.22 16.52 17.74 15.88 17.74 L 8.42 17.74 C 7.78 17.74 7.26 17.22 7.26 16.58 L 7.26 11.6 L 9.07 11.6 C 8.92 11.99 8.83 12.41 8.83 12.85 C 8.83 14.68 10.32 16.17 12.15 16.17 C 13.98 16.17 15.47 14.68 15.47 12.85 C 15.47 12.41 15.38 11.99 15.23 11.6 L 17.04 11.6 L 17.04 16.58 Z M 10.42 11.6 C 10.8 11.07 11.44 10.71 12.15 10.71 C 12.86 10.71 13.49 11.07 13.88 11.6 C 14.14 11.96 14.29 12.39 14.29 12.85 C 14.29 14.03 13.33 14.99 12.15 14.99 C 10.97 14.99 10.01 14.03 10.01 12.85 C 10.01 12.39 10.16 11.96 10.42 11.6 L 10.42 11.6 Z M 16.55 8.18 L 16.82 8.18 L 16.82 8.44 L 16.82 10.24 L 14.77 10.24 L 14.76 8.18 L 16.55 8.18 Z M 15.88 6.78 L 8.42 6.78 C 7.13 6.78 6.08 7.83 6.08 9.13 L 6.08 11.6 L 6.08 16.58 C 6.08 17.87 7.13 18.93 8.42 18.93 L 15.88 18.93 C 17.17 18.93 18.22 17.87 18.22 16.58 L 18.22 11.6 L 18.22 9.13 C 18.22 7.83 17.17 6.78 15.88 6.78 L 15.88 6.78 Z M 15.88 6.78" />
</svg>