<?xml version="1.0" encoding="UTF-8" standalone="no"?>
<svg width="13px" height="13px" viewBox="0 0 13 13" version="1.1" xmlns="http://www.w3.org/2000/svg" xmlns:xlink="http://www.w3.org/1999/xlink" xmlns:sketch="http://www.bohemiancoding.com/sketch/ns">
    <!-- Generator: Sketch Beta 3.4.4 (17258) - http://www.bohemiancoding.com/sketch -->
    <title>Page 1</title>
    <desc>Created with Sketch Beta.</desc>
    <defs></defs>
    <g id="Welcome" stroke="none" stroke-width="1" fill="none" fill-rule="evenodd" sketch:type="MSPage">
        <g id="1" sketch:type="MSArtboardGroup" transform="translate(-1262.000000, -65.000000)" fill="#6D6D6D">
            <g id="nav" sketch:type="MSLayerGroup" transform="translate(0.000000, 34.000000)">
                <g id="shopping-bag" transform="translate(1262.000000, 31.000000)" sketch:type="MSShapeGroup">
                    <g id="Page-1-+-Page-1">
                        <g id="Page-1">
                            <path d="M12.2894901,3.63749123 L10.4126151,3.63749123 L7.31827303,0.353736842 C7.15791118,0.182684211 6.90133224,0.182684211 6.74097039,0.353736842 C6.58060855,0.524789474 6.58060855,0.798245614 6.74097039,0.969298246 L9.24261513,3.63749123 L3.436875,3.63749123 L5.93830592,0.969298246 C6.09866776,0.798245614 6.09866776,0.524789474 5.93830592,0.353736842 C5.77794408,0.182684211 5.52157895,0.182684211 5.36121711,0.353736842 L2.266875,3.63749123 L0.39,3.63749123 C0.213815789,3.63749123 0.0534539474,3.79166667 0.0534539474,3.99647368 L0.0534539474,5.9975614 C0.0534539474,6.18549123 0.197993421,6.35654386 0.39,6.35654386 L1.12745066,6.35654386 L1.84907895,11.9675263 C1.9134375,12.4806842 2.34620066,12.8743333 2.82728618,12.8743333 L9.83467105,12.8743333 C10.3315789,12.8743333 10.7485197,12.4806842 10.8126645,11.9675263 L11.5342928,6.35654386 L12.2719572,6.35654386 C12.4481414,6.35654386 12.6085033,6.20236842 12.6085033,5.9975614 L12.6085033,3.99647368 C12.6260362,3.80854386 12.4814967,3.63749123 12.2894901,3.63749123 L12.2894901,3.63749123 Z M10.1720724,11.8648947 C10.15625,12.0359474 10.0117105,12.1732456 9.85134868,12.1732456 L2.84396382,12.1732456 C2.68360197,12.1732456 2.5390625,12.0359474 2.52324013,11.8648947 L1.81743421,6.35745614 L10.909523,6.35745614 L10.1720724,11.8648947 Z M11.9687664,5.63949123 L11.2629605,5.63949123 L11.2471382,5.63949123 L11.231102,5.63949123 L1.44817434,5.63949123 L1.43235197,5.63949123 L1.41652961,5.63949123 L0.710723684,5.63949123 L0.710723684,4.33949123 L11.951875,4.33949123 L11.951875,5.63949123 L11.9687664,5.63949123 Z" id="Fill-1"></path>
                            <path d="M4.47104087,7.17896491 L4.47104087,7.17896491 C4.18584009,7.17896491 3.98231908,7.33291228 3.98231908,7.53794737 L3.98231908,10.8217018 C3.98231908,11.0096316 4.20592083,11.1806842 4.47104087,11.1806842 C4.73588954,11.1806842 4.95976266,11.0267368 4.95976266,10.8217018 L4.95976266,7.52107018 C4.93832511,7.332 4.7348041,7.17896491 4.47104087,7.17896491 L4.47104087,7.17896491 Z" id="Fill-2"></path>
                            <path d="M6.50720863,7.17896491 L6.50720863,7.17896491 C6.22200785,7.17896491 6.01848684,7.33291228 6.01848684,7.53794737 L6.01848684,10.8217018 C6.01848684,11.0096316 6.24235995,11.1806842 6.50720863,11.1806842 C6.77232867,11.1806842 6.99593042,11.0267368 6.99593042,10.8217018 L6.99593042,7.52107018 C6.99593042,7.332 6.77232867,7.17896491 6.50720863,7.17896491 L6.50720863,7.17896491 Z" id="Fill-3"></path>
                            <path d="M8.54458119,7.17896491 L8.54458119,7.17896491 C8.25930121,7.17896491 8.05572368,7.33291228 8.05572368,7.53794737 L8.05572368,10.8217018 C8.05572368,11.0096316 8.27938753,11.1806842 8.54458119,11.1806842 C8.80950342,11.1806842 9.03316726,11.0267368 9.03316726,10.8217018 L9.03316726,7.52107018 C9.03208151,7.332 8.80841767,7.17896491 8.54458119,7.17896491 L8.54458119,7.17896491 Z" id="Fill-4"></path>
                            <path d="M10.9733317,5.15135587 C10.9733317,5.84642686 9.99588816,5.84642686 9.99588816,5.15135587 C9.99588816,4.45628488 10.9733317,4.45628488 10.9733317,5.15135587" id="Fill-5"></path>
                            <path d="M3.03542055,5.15135587 C3.03542055,5.84642686 2.05797697,5.84642686 2.05797697,5.15135587 C2.05797697,4.45628488 3.03542055,4.45628488 3.03542055,5.15135587" id="Fill-6"></path>
                        </g>
                    </g>
                </g>
            </g>
        </g>
    </g>
</svg>