<?xml version="1.0" encoding="UTF-8" standalone="no"?>
<svg width="64px" height="64px" viewBox="0 0 64 64" version="1.1" xmlns="http://www.w3.org/2000/svg" xmlns:xlink="http://www.w3.org/1999/xlink" xmlns:sketch="http://www.bohemiancoding.com/sketch/ns">
    <!-- Generator: Sketch Beta 3.4.4 (17258) - http://www.bohemiancoding.com/sketch -->
    <title>Oval 1 + Page 1</title>
    <desc>Created with Sketch Beta.</desc>
    <defs></defs>
    <g id="Welcome" stroke="none" stroke-width="1" fill="none" fill-rule="evenodd" sketch:type="MSPage">
        <g id="1" sketch:type="MSArtboardGroup" transform="translate(-1318.000000, -3730.000000)">
            <g id="instagram" sketch:type="MSLayerGroup" transform="translate(0.000000, 3707.000000)">
                <g id="Oval-1-+-Page-1-+-Oval-1-+-Page-1" transform="translate(1318.000000, 23.000000)" sketch:type="MSShapeGroup">
                    <g id="Oval-1-+-Page-1" transform="translate(2.000000, 2.000000)">
                        <circle id="Oval-1" stroke="#2EE2B9" stroke-width="3" cx="30" cy="30" r="30"></circle>
                        <g id="Page-1" transform="translate(18.000000, 18.000000)" fill="#2EE2B9">
                            <path d="M18.2863333,12.1823333 C18.2863333,15.3776667 15.6953333,17.9686667 12.5,17.9686667 C9.30466667,17.9686667 6.715,15.3776667 6.715,12.1823333 C6.715,11.4596667 6.853,10.7706667 7.095,10.1316667 L0,10.1316667 L0,18.75 C0,22.203 2.79833333,25 6.25,25 L18.75,25 C22.2016667,25 25,22.203 25,18.75 L25,10.1316667 L17.905,10.1316667 C18.147,10.7696667 18.2863333,11.4583333 18.2863333,12.1823333 L18.2863333,12.1823333 Z" id="Fill-19"></path>
                            <path d="M15.9726667,12.181 C15.9726667,14.099 14.418,15.6536667 12.5,15.6536667 C10.582,15.6536667 9.02733333,14.099 9.02733333,12.181 C9.02733333,10.2643333 10.582,8.70966667 12.5,8.70966667 C14.418,8.70966667 15.9726667,10.2643333 15.9726667,12.181" id="Fill-20"></path>
                            <path d="M18.75,0 L6.57933333,0 L6.57933333,6.517 L5.21233333,6.517 L5.21233333,0.0936666667 C4.737,0.173333333 4.27733333,0.300666667 3.845,0.481666667 L3.845,6.51833333 L2.47933333,6.51833333 L2.47933333,1.27466667 C0.975333333,2.41533333 0,4.21733333 0,6.25133333 L0,8.08066667 L8.41933333,8.08066667 C9.466,7.04033333 10.9076667,6.396 12.5,6.396 C14.0923333,6.396 15.534,7.039 16.5793333,8.08066667 L25,8.08066667 L25,6.25133333 C25,2.79933333 22.2016667,0 18.75,0 L18.75,0 Z M21.543,5.91133333 C21.543,6.29833333 21.228,6.61466667 20.84,6.61466667 L18.733,6.61466667 C18.345,6.61466667 18.03,6.30066667 18.03,5.91133333 L18.03,3.80333333 C18.03,3.41533333 18.3436667,3.10033333 18.733,3.10033333 L20.84,3.10033333 C21.228,3.10033333 21.543,3.414 21.543,3.80333333 L21.543,5.91133333 Z" id="Fill-21"></path>
                        </g>
                    </g>
                </g>
            </g>
        </g>
    </g>
</svg>