<?xml version="1.0" encoding="UTF-8" standalone="no"?>
<svg width="59px" height="79px" viewBox="0 0 59 79" version="1.1" xmlns="http://www.w3.org/2000/svg" xmlns:xlink="http://www.w3.org/1999/xlink" xmlns:sketch="http://www.bohemiancoding.com/sketch/ns">
    <!-- Generator: Sketch Beta 3.4.4 (17258) - http://www.bohemiancoding.com/sketch -->
    <title>MORE QUESTION? CONTA + Page 1</title>
    <desc>Created with Sketch Beta.</desc>
    <defs>
        <path id="path-1" d="M0,0.355 L58.477,0.355 L58.477,57 L0,57"></path>
    </defs>
    <g id="Welcome" stroke="none" stroke-width="1" fill="none" fill-rule="evenodd" sketch:type="MSPage">
        <g id="1" sketch:type="MSArtboardGroup" transform="translate(-1037.000000, -4377.000000)">
            <g id="footer" sketch:type="MSLayerGroup" transform="translate(0.000000, 4240.000000)">
                <g id="MORE-QUESTION?-CONTA-+-Page-1-+-MORE-QUESTION?-CONTA-+-Page-1" transform="translate(1037.000000, 137.000000)">
                    <g id="MORE-QUESTION?-CONTA-+-Page-1">
                        <text id="IN-LA" sketch:type="MSTextLayer" font-family="Karla" font-size="13" font-weight="bold" sketch:alignment="middle" line-spacing="13" letter-spacing="3" fill="#4D4D4D">
                            <tspan x="6" y="79">IN LA</tspan>
                        </text>
                        <g id="Page-1">
                            <mask id="mask-2" sketch:name="Clip 2" fill="white">
                                <use xlink:href="#path-1"></use>
                            </mask>
                            <g id="Clip-2"></g>
                            <path d="M29.6757,53.5754 C31.2627,51.4654 31.2667,49.5994 30.5347,47.6234 C29.7657,49.3694 28.1307,50.9524 29.6757,53.5754 M30.7947,42.1814 C31.6687,41.2184 32.3157,40.5204 32.9467,39.8074 C34.5357,38.0164 36.0587,36.1624 37.7157,34.4374 C40.9217,31.0984 44.2797,27.9024 47.4277,24.5114 C49.8657,21.8864 52.1377,19.1054 53.7687,15.8554 C54.5337,14.3284 54.5777,12.8104 54.2277,11.2174 C53.7707,9.1344 52.8037,7.2514 51.3217,5.7864 C49.4967,3.9814 47.2537,2.4194 44.6097,2.6524 C38.0337,3.2314 33.3417,6.7924 30.4677,12.6654 C29.5917,14.4554 29.6577,16.5054 30.7877,18.1954 C32.9327,21.4054 34.9267,22.0374 37.8597,19.6734 C39.5727,18.2924 39.4547,17.2654 37.3957,15.6214 C36.4947,16.1994 35.5377,16.8114 34.4047,17.5384 C34.1407,16.8784 33.6927,16.3264 33.8017,15.9244 C34.1497,14.6344 34.9547,13.7064 36.3767,13.3844 C38.0077,13.0144 39.1987,13.2884 40.0237,14.3804 C42.0527,17.0684 41.1117,21.3854 37.9897,22.7964 C35.7747,23.7974 33.5517,23.9984 31.2877,22.2944 C28.6087,20.2784 26.8137,17.7564 25.7497,14.6784 C24.8147,11.9744 23.3387,9.6154 21.3927,7.5864 C16.9867,2.9914 11.8437,3.6524 8.3357,8.0124 C3.5407,13.9734 4.2967,21.0114 10.6667,25.8384 C13.3947,27.9054 16.3997,29.6044 19.1537,31.6394 C23.2927,34.6994 27.8617,37.2954 30.7947,42.1814 M29.4657,44.2594 C27.6667,41.2914 25.1787,39.0484 22.5167,37.0214 C19.2207,34.5114 15.8447,32.0994 12.4347,29.7454 C10.0087,28.0714 7.4357,26.6114 4.9947,24.9574 C3.8197,24.1604 2.6737,23.2494 1.7327,22.1944 C-0.4123,19.7894 -0.2503,16.8444 0.5377,14.0584 C1.4847,10.7094 3.4547,7.8254 6.1257,5.5964 C9.9347,2.4164 14.1527,1.8914 18.8557,3.7714 C23.0897,5.4634 25.8867,8.5164 28.2697,12.4684 C30.0147,7.4854 33.6057,4.3844 38.0077,2.3524 C43.5697,-0.2156 49.2377,-0.6366 54.6307,3.0564 C57.3827,4.9414 58.4717,7.7374 58.4777,10.8814 C58.4837,14.3394 57.2917,17.4914 54.8547,20.0144 C50.5397,24.4824 46.0627,28.7974 41.8227,33.3344 C38.7317,36.6414 35.8747,40.1714 33.0207,43.6904 C32.6347,44.1664 32.6917,45.2004 32.8657,45.8954 C33.4807,48.3564 33.5817,50.7984 32.9087,53.2434 C32.6997,54.0024 32.4007,54.7644 31.9977,55.4374 C30.7227,57.5694 28.8967,57.5144 27.6067,55.3014 C26.3327,53.1164 26.5547,50.8574 27.4947,48.6254 C28.1107,47.1634 28.7987,45.7314 29.4657,44.2594" id="Fill-1" fill="#404041" sketch:type="MSShapeGroup" mask="url(#mask-2)"></path>
                        </g>
                    </g>
                </g>
            </g>
        </g>
    </g>
</svg>